<svg width="50" height="51" viewBox="0 0 50 51" fill="none" xmlns="http://www.w3.org/2000/svg">
<circle cx="25" cy="25.5" r="24.5" stroke="white"/>
<path d="M34.7648 32.4038C34.2301 31.1373 33.4542 29.9869 32.4802 29.0166C31.5092 28.0436 30.359 27.2678 29.093 26.7321C29.0817 26.7264 29.0704 26.7235 29.059 26.7179C30.8249 25.4424 31.9728 23.3647 31.9728 21.0206C31.9728 17.1374 28.8266 13.9911 24.9434 13.9911C21.0602 13.9911 17.9139 17.1374 17.9139 21.0206C17.9139 23.3647 19.0619 25.4424 20.8277 26.7207C20.8164 26.7264 20.8051 26.7292 20.7937 26.7349C19.5239 27.2706 18.3844 28.0387 17.4065 29.0195C16.4335 29.9905 15.6577 31.1407 15.1219 32.4067C14.5956 33.646 14.3118 34.9748 14.2858 36.3211C14.285 36.3513 14.2903 36.3814 14.3014 36.4096C14.3124 36.4377 14.329 36.4634 14.3502 36.4851C14.3713 36.5067 14.3965 36.5239 14.4244 36.5357C14.4523 36.5474 14.4823 36.5535 14.5125 36.5535H16.2132C16.3379 36.5535 16.4371 36.4543 16.44 36.3324C16.4967 34.1442 17.3753 32.0949 18.9286 30.5416C20.5358 28.9344 22.6701 28.0501 24.9434 28.0501C27.2166 28.0501 29.351 28.9344 30.9581 30.5416C32.5114 32.0949 33.3901 34.1442 33.4468 36.3324C33.4496 36.4571 33.5488 36.5535 33.6735 36.5535H35.3742C35.4045 36.5535 35.4344 36.5474 35.4623 36.5357C35.4902 36.5239 35.5155 36.5067 35.5366 36.4851C35.5577 36.4634 35.5743 36.4377 35.5854 36.4096C35.5964 36.3814 35.6017 36.3513 35.601 36.3211C35.5726 34.9662 35.292 33.6482 34.7648 32.4038ZM24.9434 25.8959C23.6424 25.8959 22.4179 25.3885 21.4967 24.4673C20.5755 23.5461 20.0681 22.3216 20.0681 21.0206C20.0681 19.7196 20.5755 18.4951 21.4967 17.5739C22.4179 16.6527 23.6424 16.1453 24.9434 16.1453C26.2444 16.1453 27.4689 16.6527 28.3901 17.5739C29.3113 18.4951 29.8187 19.7196 29.8187 21.0206C29.8187 22.3216 29.3113 23.5461 28.3901 24.4673C27.4689 25.3885 26.2444 25.8959 24.9434 25.8959Z" fill="white"/>
</svg>
