<svg width="20" height="23" viewBox="0 0 20 23" fill="none" xmlns="http://www.w3.org/2000/svg">
<g clip-path="url(#clip0_1_167)">
<path d="M9.24554 0.71875C9.24554 0.32182 9.60714 0 9.95982 0C10.3929 0 10.7143 0.32182 10.7143 0.71875V1.47299C14.3259 1.83371 17.1429 4.89648 17.1429 8.625V9.93223C17.1429 11.8953 17.9196 13.7775 19.2991 15.1701L19.4196 15.2914C19.7902 15.6643 20 16.1314 20 16.6975C20 17.798 19.1161 18.6875 18.0223 18.6875H1.97679C0.885268 18.6875 0 17.798 0 16.6975C0 16.1314 0.208304 15.6643 0.579018 15.2914L0.701786 15.1701C2.0817 13.7775 2.85714 11.8953 2.85714 9.93223V8.625C2.85714 4.89648 5.67411 1.83371 9.28571 1.47299L9.24554 0.71875ZM9.95982 2.875C6.84375 2.875 4.24554 5.44902 4.24554 8.625V9.93223C4.24554 12.2771 3.35982 14.5277 1.71205 16.1854L1.58929 16.3066C1.48616 16.41 1.38839 16.5537 1.38839 16.6975C1.38839 17.0029 1.67411 17.25 1.97679 17.25H18.0223C18.3259 17.25 18.5714 17.0029 18.5714 16.6975C18.5714 16.5537 18.5134 16.41 18.4107 16.3066L18.2902 16.1854C16.6384 14.5277 15.7143 12.2771 15.7143 9.93223V8.625C15.7143 5.44902 13.1563 2.875 9.95982 2.875ZM9.95982 21.5625C10.6205 21.5625 11.1518 21.1627 11.3482 20.6057C11.4777 20.2283 11.8884 19.9947 12.2589 20.1654C12.6295 20.3002 12.8259 20.709 12.6964 21.0818C12.3036 22.2004 11.2455 23 9.95982 23C8.75447 23 7.69643 22.2004 7.30357 21.0818C7.17411 20.709 7.37054 20.3002 7.74107 20.1654C8.11161 19.9947 8.52232 20.2283 8.65179 20.6057C8.84822 21.1627 9.37947 21.5625 9.95982 21.5625Z" fill="white"/>
<ellipse cx="16" cy="4.13315" rx="3" ry="3.04227" fill="#FB5A5A"/>
</g>
<defs>
<clipPath id="clip0_1_167">
<rect width="20" height="23" fill="white"/>
</clipPath>
</defs>
</svg>
