<svg width="21" height="25" viewBox="0 0 21 25" fill="none" xmlns="http://www.w3.org/2000/svg">
<path d="M21 17.9688V2.34375C21 1.04932 19.9922 0 18.75 0H3.75C1.67906 0 0 1.74902 0 3.90625V21.875C0 23.6011 1.34297 25 3 25H20.25C20.6646 25 21 24.6506 21 24.2188C21 23.7869 20.6625 23.4375 20.25 23.4375H19.5V20.1685C20.3719 19.8438 21 18.9844 21 17.9688ZM1.5 3.90625C1.5 2.61182 2.50734 1.5625 3.75 1.5625H4.5V18.75H3C2.45109 18.75 1.94297 18.9155 1.5 19.1846V3.90625ZM18 23.4375H3C2.17313 23.4375 1.5 22.7363 1.5 21.875C1.5 21.0137 2.17313 20.3125 3 20.3125H18V23.4375ZM18.75 18.75H6V1.5625H18.75C19.1625 1.5625 19.5 1.9126 19.5 2.34375V17.9688C19.5 18.3984 19.1625 18.75 18.75 18.75ZM16.5 6.25H9C8.5875 6.25 8.25 6.60156 8.25 7.03125C8.25 7.46094 8.5875 7.8125 9 7.8125H16.5C16.9146 7.8125 17.25 7.46309 17.25 7.03125C17.25 6.59941 16.9125 6.25 16.5 6.25ZM16.5 10.9375H9C8.5875 10.9375 8.25 11.2891 8.25 11.7188C8.25 12.1484 8.5875 12.5 9 12.5H16.5C16.9146 12.5 17.25 12.1506 17.25 11.7188C17.25 11.2869 16.9125 10.9375 16.5 10.9375Z" fill="#262D34"/>
</svg>
