<svg width="23" height="19" viewBox="0 0 23 19" fill="none" xmlns="http://www.w3.org/2000/svg">
<path d="M0 3.75C0 2.16201 1.28701 0.875 2.875 0.875H20.125C21.7107 0.875 23 2.16201 23 3.75V15.25C23 16.8357 21.7107 18.125 20.125 18.125H2.875C1.28701 18.125 0 16.8357 0 15.25V3.75ZM1.4375 3.75V5.54238L10.2242 11.9842C10.9834 12.5412 12.0166 12.5412 12.7758 11.9842L21.5625 5.54238V3.75C21.5625 2.95488 20.9201 2.3125 20.125 2.3125H2.83457C2.08123 2.3125 1.39707 2.95488 1.39707 3.75H1.4375ZM1.4375 7.32578V15.25C1.4375 16.0451 2.08123 16.6875 2.875 16.6875H20.125C20.9201 16.6875 21.5625 16.0451 21.5625 15.25V7.32578L13.6248 13.1432C12.358 14.073 10.642 14.073 9.3752 13.1432L1.4375 7.32578Z" fill="white"/>
</svg>
