<svg width="138" height="139" viewBox="0 0 138 139" fill="none" xmlns="http://www.w3.org/2000/svg">
<g clip-path="url(#clip0_1_441)">
<path d="M88.0127 83.711C87.7365 84.2093 87.204 84.5159 86.6222 84.5159H52.1068C51.513 84.5159 50.9697 84.1921 50.7005 83.6775C50.4312 83.1633 50.482 82.5459 50.832 82.0793L57.7353 72.8811C58.0327 72.4816 58.5061 72.2516 59.0091 72.2516C59.512 72.2516 59.9869 72.4855 60.2842 72.8815L63.4853 77.1462L72.6864 63.8184C72.9833 63.3122 73.4763 63.0535 73.999 63.0535C74.5217 63.0535 75.0197 63.3095 75.3116 63.7361L87.9348 82.1325C88.2592 82.5996 88.2888 83.2032 88.0127 83.711Z" fill="#262D34"/>
<path opacity="0.4" d="M89.7779 47.7231H48.7527C46.1384 47.7231 44.0191 49.7822 44.0191 52.3222V86.0489C44.0191 88.5879 46.1384 90.6479 48.7527 90.6479H89.7779C92.3923 90.6479 94.5116 88.5889 94.5116 86.0489V52.3222C94.5116 49.7822 92.3913 47.7231 89.7779 47.7231ZM54.9756 53.8553C57.5899 53.8553 59.7092 55.9143 59.7092 58.4543C59.7092 60.9944 57.6777 63.0534 54.9756 63.0534C52.2734 63.0534 50.2419 60.9944 50.2419 58.4543C50.2419 55.9143 52.449 53.8553 54.9756 53.8553ZM88.0127 83.711C87.7365 84.2092 87.204 84.5158 86.6222 84.5158H52.1068C51.513 84.5158 50.9697 84.1921 50.7005 83.6775C50.4312 83.1632 50.482 82.5459 50.832 82.0793L57.7353 72.8811C58.0327 72.4816 58.5061 72.2516 59.009 72.2516C59.512 72.2516 59.9869 72.4855 60.2842 72.8815L63.4853 77.1462L72.6864 63.8184C72.9833 63.3121 73.4763 63.0534 73.999 63.0534C74.5217 63.0534 75.0197 63.3094 75.3116 63.7361L87.9348 82.1325C88.2592 82.5995 88.2888 83.2032 88.0127 83.711Z" fill="#262D34"/>
</g>
<circle cx="69" cy="69.5" r="68.5" stroke="#D9D9D9"/>
<defs>
<clipPath id="clip0_1_441">
<rect width="50.4925" height="49.0569" fill="white" transform="translate(44.0191 44.6571)"/>
</clipPath>
</defs>
</svg>
