<svg width="24" height="24" viewBox="0 0 24 24" fill="none" xmlns="http://www.w3.org/2000/svg">
<path d="M7.87503 11.9578C7.87503 9.72188 9.72191 7.83281 12 7.83281C14.2782 7.83281 16.125 9.72188 16.125 11.9578C16.125 14.2781 14.2782 16.125 12 16.125C9.72191 16.125 7.87503 14.2781 7.87503 11.9578ZM12 9.33281C10.5516 9.33281 9.37503 10.5516 9.37503 11.9578C9.37503 13.4484 10.5516 14.5828 12 14.5828C13.4485 14.5828 14.625 13.4484 14.625 11.9578C14.625 10.5516 13.4485 9.33281 12 9.33281ZM3.07831 10.8094L1.18784 9.08438C0.666594 8.61094 0.546594 7.8375 0.899094 7.22812L2.31659 4.77188C2.66909 4.16156 3.39894 3.87891 4.07066 4.09312L6.50628 4.87031C7.13441 4.38562 7.82816 3.9825 8.56878 3.67641L9.11722 1.17937C9.26722 0.490781 9.87659 0 10.5844 0H13.4157C14.1235 0 14.7328 0.490781 14.8828 1.17937L15.4313 3.67641C16.1297 3.9825 16.8657 4.38562 17.4938 4.87031L19.9313 4.09312C20.6016 3.87891 21.3328 4.16156 21.6844 4.77188L23.1 7.22812C23.4516 7.8375 23.3344 8.61094 22.8141 9.08438L20.9203 10.8094C20.9719 11.1984 21 11.5969 21 11.9578C21 12.4031 20.9719 12.8016 20.9203 13.1906L22.8141 14.9156C23.3344 15.3891 23.4516 16.1625 23.1 16.7719L21.6844 19.2281C21.3328 19.8375 20.6016 20.1188 19.9313 19.9078L17.4938 19.1297C16.8657 19.6125 16.1297 20.0156 15.4313 20.325L14.8828 22.8187C14.7328 23.5078 14.1235 24 13.4157 24H10.5844C9.87659 24 9.26722 23.5078 9.11722 22.8187L8.56878 20.325C7.82816 20.0156 7.13441 19.6125 6.50628 19.1297L4.07066 19.9078C3.39894 20.1188 2.66909 19.8375 2.31659 19.2281L0.899094 16.7719C0.546594 16.1625 0.666594 15.3891 1.18784 14.9156L3.07831 13.1906C3.02675 12.8016 3.00003 12.4031 3.00003 11.9578C3.00003 11.5969 3.02675 11.1984 3.07831 10.8094ZM7.42503 6.05625L6.80159 6.53906L3.6155 5.52188L2.198 7.97812L4.66784 10.2281L4.56519 11.0063C4.52206 11.3297 4.50003 11.6625 4.50003 11.9578C4.50003 12.3375 4.52206 12.6703 4.56519 12.9938L4.66784 13.7719L2.198 16.0219L3.6155 18.4781L6.80159 17.4609L7.42503 17.9437C7.94534 18.3469 8.52659 18.6844 9.14066 18.8953L9.86722 19.2375L10.5844 22.5H13.4157L14.1328 19.2375L14.8172 18.8953C15.4735 18.6844 16.0547 18.3469 16.575 17.9437L17.1985 17.4609L20.386 18.4781L21.8016 16.0219L19.3313 13.7719L19.4344 12.9938C19.4766 12.6703 19.5 12.3375 19.5 12C19.5 11.6625 19.4766 11.3297 19.4344 11.0063L19.3313 10.2281L21.8016 7.97812L20.386 5.52188L17.1985 6.53906L16.575 6.05625C16.0547 5.65312 15.4735 5.31563 14.8172 5.0625L14.1328 4.7625L13.4157 1.5H10.5844L9.86722 4.7625L9.14066 5.0625C8.52659 5.31563 7.94534 5.65312 7.42503 6.05625Z" fill="#262D34"/>
</svg>
