<svg width="30" height="22" viewBox="0 0 30 22" fill="none" xmlns="http://www.w3.org/2000/svg">
<path d="M30 6.24866C30 6.75549 29.6982 7.20813 29.2477 7.3761L15.9961 12.3175C15.3525 12.5573 14.6508 12.5573 14.0072 12.3175L5.07187 8.98792C5.71406 8.24573 6.52031 7.68909 7.54688 7.4303L15.1828 5.44202C15.5857 5.33748 15.8287 4.91321 15.7294 4.49524C15.6298 4.07561 15.2152 3.81702 14.8195 3.92688L7.18594 5.91663C5.69063 6.30725 4.43437 7.21545 3.56578 8.42639L0.752344 7.37659C0.301781 7.20569 0 6.75647 0 6.24866C0 5.74084 0.301781 5.28919 0.752344 5.12122L14.0039 0.17981C14.6475 -0.0599365 15.3492 -0.0599365 15.9928 0.17981L29.2444 5.12122C29.7 5.29163 30 5.74084 30 6.24866ZM16.4578 13.7877C16.0172 13.9684 15.5109 14.0612 15 14.0612C14.4881 14.0612 13.9833 13.97 13.5 13.7899L6.69375 11.2535L6 18.2262C6 20.2428 9.98906 21.8737 15 21.8737C19.9266 21.8737 24 20.2428 24 18.2277L23.3072 11.2501L16.4578 13.7877Z" fill="#262D34"/>
<path opacity="0.4" d="M15.1828 5.44278L7.54691 7.43009C5.70004 7.91348 4.33129 9.42227 3.90379 11.2826C4.25769 11.5268 4.50004 11.9955 4.50004 12.4984C4.50004 12.9844 4.27438 13.4013 3.94035 13.6879L5.10425 20.9633C5.17972 21.4389 4.82816 21.8734 4.36457 21.8734H1.63551C1.17205 21.8734 0.819411 21.4399 0.895818 20.9638L2.05972 13.6884C1.7255 13.4018 1.50004 12.9428 1.50004 12.4984C1.50004 11.852 1.87724 11.2968 2.41504 11.0595C2.9316 8.57706 4.7391 6.55362 7.18222 5.91788L14.8182 3.9296C15.2137 3.81973 15.6282 4.07838 15.728 4.49796C15.8297 4.91544 15.586 5.34024 15.1828 5.44278Z" fill="#262D34"/>
</svg>
